<svg id="evjhk2c4aik1" xmlns="http://www.w3.org/2000/svg" xmlns:xlink="http://www.w3.org/1999/xlink" viewBox="0 0 800 800" shape-rendering="geometricPrecision" text-rendering="geometricPrecision"><g id="evjhk2c4aik2"><path id="evjhk2c4aik3" d="M282.639000,281.223000L282.639000,281.223000L282.639000,281.223000L282.639000,281.223000L282.639000,281.223000C280.166000,279.362000,277.605000,277.703000,274.975000,276.240000C273.071000,275.181000,270.680000,275.676000,269.371000,277.417000L252.879000,299.329000L251.703000,300.892000C249.917000,303.265000,247.065000,304.557000,244.098000,304.421000C243.016000,304.372000,241.934000,304.382000,240.856000,304.450000C232.567000,304.975000,224.548000,308.975000,219.162000,316.131000C214.832000,321.884000,212.933000,328.707000,213.283000,335.376000C213.346000,336.577000,214.040000,337.674000,215.134000,338.172000C217.404000,339.204000,219.151000,341.309000,219.588000,344.002000C220.206000,347.811000,217.866000,351.553000,214.170000,352.661000C209.813000,353.967000,205.338000,351.298000,204.356000,346.937000C203.824000,344.575000,204.435000,342.226000,205.819000,340.457000C206.587000,339.476000,206.973000,338.254000,206.863000,337.013000C206.105000,328.461000,208.383000,319.611000,213.953000,312.211000C220.979000,302.877000,231.670000,297.937000,242.515000,297.874000C244.605000,297.862000,246.567000,296.863000,247.824000,295.193000L263.012000,275.015000C264.201000,273.436000,263.433000,271.167000,261.536000,270.610000C236.106000,263.150000,207.631000,271.544000,190.576000,293.756000C168.477000,322.537000,173.847000,364.035000,202.563000,386.218000C205.250000,388.294000,208.045000,390.127000,210.923000,391.726000C212.816000,392.778000,215.197000,392.263000,216.500000,390.533000L232.992000,368.622000L234.168000,367.059000C235.954000,364.686000,238.806000,363.394000,241.773000,363.530000C242.855000,363.579000,243.937000,363.569000,245.015000,363.501000C253.304000,362.976000,261.323000,358.976000,266.709000,351.820000C271.039000,346.067000,272.938000,339.244000,272.588000,332.575000C272.525000,331.374000,271.831000,330.277000,270.737000,329.779000C268.467000,328.747000,266.720000,326.642000,266.283000,323.949000C265.665000,320.140000,268.005000,316.398000,271.701000,315.291000C276.058000,313.985000,280.533000,316.654000,281.515000,321.015000C282.047000,323.377000,281.436000,325.726000,280.052000,327.495000C279.284000,328.476000,278.898000,329.698000,279.008000,330.939000C279.766000,339.491000,277.488000,348.341000,271.918000,355.741000C264.892000,365.075000,254.201000,370.015000,243.356000,370.078000C241.266000,370.090000,239.304000,371.089000,238.047000,372.759000L222.860000,392.936000C221.680000,394.504000,222.421000,396.778000,224.304000,397.332000C249.937000,404.866000,278.672000,396.287000,295.688000,373.680000C317.614000,344.545000,311.773000,303.151000,282.639000,281.223000Z" fill="rgb(0,160,255)" stroke="none" stroke-width="1"/><g id="evjhk2c4aik4"><path id="evjhk2c4aik5" d="M391.613000,299.257000L391.612000,297.690000C391.611000,296.557000,390.692000,295.638000,389.559000,295.638000L338.135000,295.638000C337.001000,295.638000,336.082000,296.557000,336.082000,297.691000L336.082000,300.828000C336.082000,301.962000,337.001000,302.881000,338.135000,302.881000L381.764000,302.881000C383.019000,302.881000,383.985000,303.988000,383.798000,305.229000C382.574000,313.342000,378.737000,328.514000,366.747000,343.083000C365.900000,344.112000,364.328000,344.094000,363.506000,343.044000C353.474000,330.216000,350.387000,317.064000,349.544000,312.218000C349.360000,311.157000,348.378000,310.426000,347.307000,310.540000L345.664000,310.714000L344.215000,310.865000C343.027000,310.989000,342.189000,312.093000,342.407000,313.268000C343.435000,318.826000,347.180000,334.109000,358.956000,348.656000C359.639000,349.499000,359.581000,350.732000,358.781000,351.466000C344.445000,364.615000,331.552000,367.497000,326.940000,368.123000C325.913000,368.263000,325.146000,369.132000,325.151000,370.169000L325.166000,373.338000C325.172000,374.558000,326.231000,375.512000,327.442000,375.370000C332.926000,374.725000,347.558000,371.627000,363.726000,356.757000C364.525000,356.023000,365.740000,356.023000,366.536000,356.760000C374.349000,363.995000,384.335000,370.971000,397.802000,375.255000C398.893000,375.602000,400.061000,374.968000,400.384000,373.870000L401.271000,370.863000C401.589000,369.785000,400.974000,368.665000,399.904000,368.324000C387.652000,364.416000,378.619000,358.124000,371.526000,351.673000C370.708000,350.929000,370.667000,349.667000,371.385000,348.827000C391.369000,325.431000,391.615000,300.395000,391.613000,299.257000Z" fill="rgb(0,160,255)" stroke="none" stroke-width="1"/><path id="evjhk2c4aik6" d="M427.310000,292.355000L424.173000,292.355000C423.039000,292.355000,422.120000,293.274000,422.120000,294.408000L422.120000,305.407000C422.120000,306.541000,421.201000,307.460000,420.067000,307.460000L412.688000,307.460000C411.554000,307.460000,410.635000,308.379000,410.635000,309.513000L410.635000,312.650000C410.635000,313.784000,411.554000,314.703000,412.688000,314.703000L420.067000,314.703000C421.201000,314.703000,422.120000,315.622000,422.120000,316.756000L422.120000,332.689000C422.120000,333.823000,421.201000,334.742000,420.067000,334.742000L412.688000,334.742000C411.554000,334.742000,410.635000,335.661000,410.635000,336.795000L410.635000,339.932000C410.635000,341.066000,411.554000,341.985000,412.688000,341.985000L420.067000,341.985000C421.201000,341.985000,422.120000,342.904000,422.120000,344.038000L422.120000,359.103000C422.120000,362.373000,420.813000,367.709000,412.472000,368.413000C411.394000,368.504000,410.551000,369.378000,410.551000,370.460000L410.551000,373.585000C410.551000,374.781000,411.568000,375.742000,412.760000,375.640000C420.859000,374.947000,429.363000,370.348000,429.363000,359.103000L429.363000,344.038000C429.363000,342.904000,430.282000,341.985000,431.416000,341.985000L437.973000,341.985000C439.107000,341.985000,440.026000,341.066000,440.026000,339.932000L440.026000,336.795000C440.026000,335.661000,439.107000,334.742000,437.973000,334.742000L431.416000,334.742000C430.282000,334.742000,429.363000,333.823000,429.363000,332.689000L429.363000,316.756000C429.363000,315.622000,430.282000,314.703000,431.416000,314.703000L437.973000,314.703000C439.107000,314.703000,440.026000,313.784000,440.026000,312.650000L440.026000,309.513000C440.026000,308.379000,439.107000,307.460000,437.973000,307.460000L431.416000,307.460000C430.282000,307.460000,429.363000,306.541000,429.363000,305.407000L429.363000,294.408000C429.363000,293.274000,428.444000,292.355000,427.310000,292.355000Z" fill="rgb(0,160,255)" stroke="none" stroke-width="1"/><path id="evjhk2c4aik7" d="M443.648000,373.092000C443.648000,374.226000,444.567000,375.145000,445.701000,375.145000L468.839000,375.145000C479.078000,375.145000,487.408000,367.205000,487.408000,357.445000L487.408000,308.815000C487.408000,307.681000,486.489000,306.762000,485.355000,306.762000L445.701000,306.762000C444.567000,306.762000,443.648000,307.681000,443.648000,308.815000L443.648000,373.092000ZM468.839000,367.902000L452.944000,367.902000C451.810000,367.902000,450.891000,366.983000,450.891000,365.849000L450.891000,344.039000C450.891000,342.905000,451.810000,341.986000,452.944000,341.986000L478.111000,341.986000C479.245000,341.986000,480.164000,342.905000,480.164000,344.039000L480.164000,357.445000C480.165000,363.211000,475.084000,367.902000,468.839000,367.902000ZM480.165000,316.059000L480.165000,332.690000C480.165000,333.824000,479.246000,334.743000,478.112000,334.743000L452.945000,334.743000C451.811000,334.743000,450.892000,333.824000,450.892000,332.690000L450.892000,316.059000C450.892000,314.925000,451.811000,314.006000,452.945000,314.006000L478.112000,314.006000C479.246000,314.006000,480.165000,314.925000,480.165000,316.059000Z" fill="rgb(0,160,255)" stroke="none" stroke-width="1"/><path id="evjhk2c4aik8" d="M475.171000,292.301000L454.731000,292.301000C453.597000,292.301000,452.678000,293.220000,452.678000,294.354000L452.678000,297.491000C452.678000,298.625000,453.597000,299.544000,454.731000,299.544000L475.171000,299.544000C476.305000,299.544000,477.224000,298.625000,477.224000,297.491000L477.224000,294.354000C477.224000,293.220000,476.305000,292.301000,475.171000,292.301000Z" fill="rgb(0,160,255)" stroke="none" stroke-width="1"/><path id="evjhk2c4aik9" d="M553.303000,295.487000L510.730000,295.487000C509.596000,295.487000,508.677000,296.406000,508.677000,297.540000L508.677000,300.677000C508.677000,301.811000,509.596000,302.730000,510.730000,302.730000L553.303000,302.730000C554.437000,302.730000,555.356000,301.811000,555.356000,300.677000L555.356000,297.540000C555.356000,296.406000,554.437000,295.487000,553.303000,295.487000Z" fill="rgb(0,160,255)" stroke="none" stroke-width="1"/><path id="evjhk2c4aik10" d="M535.110000,331.800000L564.767000,331.800000C565.901000,331.800000,566.820000,330.881000,566.820000,329.747000L566.820000,326.610000C566.820000,325.476000,565.901000,324.557000,564.767000,324.557000L499.257000,324.557000C498.123000,324.557000,497.204000,325.476000,497.204000,326.610000L497.204000,329.747000C497.204000,330.881000,498.123000,331.800000,499.257000,331.800000L519.531000,331.800000C521.169000,331.800000,522.148000,333.624000,521.242000,334.989000L507.750000,359.332000C507.387000,359.877000,507.118000,360.412000,506.929000,360.965000C505.800000,364.264000,506.328000,367.803000,508.380000,370.675000C510.530000,373.685000,514.086000,375.481000,517.889000,375.481000L554.865000,375.481000C556.527000,375.481000,558.046000,374.652000,558.926000,373.263000C559.789000,371.904000,559.895000,370.224000,559.209000,368.768000L550.623000,352.125000C550.103000,351.117000,548.864000,350.722000,547.857000,351.242000L545.069000,352.681000C544.061000,353.201000,543.666000,354.439000,544.186000,355.447000L549.241000,365.243000C549.946000,366.610000,548.954000,368.238000,547.416000,368.238000L517.888000,368.238000C516.396000,368.238000,515.078000,367.591000,514.272000,366.463000C513.905000,365.951000,513.373000,364.933000,513.683000,363.665000C513.735000,363.453000,513.840000,363.252000,513.961000,363.069000L530.358000,334.349000C531.416000,332.757000,533.199000,331.800000,535.110000,331.800000Z" fill="rgb(0,160,255)" stroke="none" stroke-width="1"/></g></g></svg>